<svg xmlns="http://www.w3.org/2000/svg" version="1.1" xmlns:xlink="http://www.w3.org/1999/xlink" xmlns:svgjs="http://svgjs.dev/svgjs" width="1000" height="1000" viewBox="0 0 1000 1000"><rect width="1000" height="1000" fill="#ffffff"></rect><g transform="matrix(0.7,0,0,0.7,149.57575765408785,422.03578120644715)"><svg viewBox="0 0 396 88" data-background-color="#ffffff" preserveAspectRatio="xMidYMid meet" height="222" width="1000" xmlns="http://www.w3.org/2000/svg" xmlns:xlink="http://www.w3.org/1999/xlink"><g id="tight-bounds" transform="matrix(1,0,0,1,0.24000004431252364,0.14962277423248338)"><svg viewBox="0 0 395.52 87.7007545487983" height="87.7007545487983" width="395.52"><g><svg viewBox="0 0 395.52 87.7007545487983" height="87.7007545487983" width="395.52"><g transform="matrix(1,0,0,1,0,54.20258469093387)"><svg viewBox="0 0 395.52 33.49816985786444" height="33.49816985786444" width="395.52"><g><svg viewBox="0 0 395.52 33.49816985786444" height="33.49816985786444" width="395.52"><g><svg viewBox="0 0 395.52 33.49816985786444" height="33.49816985786444" width="395.52"><g transform="matrix(1,0,0,1,0,0)"><svg width="395.52" viewBox="3.9000000953674316 -35.5 425.6100158691406 36.04999923706055" height="33.49816985786444" data-palette-color="#ba3b0a"><path d="M24.85 0L7.5-28 7.5 0 3.9 0 3.9-35 7.5-35 24.85-7.05 24.85-35 28.5-35 28.5 0 24.85 0ZM52.4 0L48.95-11.3 38.55-11.3 35.25 0 31.35 0 41.65-35 45.8-35 56.45 0 52.4 0ZM43.7-29.2L39.5-15 48.05-15 43.7-29.2ZM84.05 0L84.05-24.25 75.9 0 72.5 0 64.45-24.25 64.45 0 60.85 0 60.85-35 64.45-35 74.2-6.55 84.05-35 87.65-35 87.65 0 84.05 0ZM113.44 0L109.99-11.3 99.59-11.3 96.29 0 92.39 0 102.69-35 106.84-35 117.49 0 113.44 0ZM104.74-29.2L100.54-15 109.09-15 104.74-29.2ZM123.59-9.15Q123.74-7.55 124.77-6.13 125.79-4.7 127.54-3.83 129.29-2.95 131.59-2.95L131.59-2.95Q135.14-2.95 137.42-4.58 139.69-6.2 139.69-9.3L139.69-9.3Q139.69-11.5 138.49-12.98 137.29-14.45 135.54-15.33 133.79-16.2 130.74-17.35L130.74-17.35Q127.49-18.55 125.49-19.58 123.49-20.6 122.12-22.38 120.74-24.15 120.74-26.9L120.74-26.9Q120.74-29.1 121.99-31.08 123.24-33.05 125.77-34.27 128.29-35.5 131.99-35.5L131.99-35.5Q134.44-35.5 136.04-35.15 137.64-34.8 139.29-34L139.29-34 138.19-30.6Q135.09-31.95 132.09-31.95L132.09-31.95Q128.54-31.95 126.52-30.53 124.49-29.1 124.54-26.65L124.54-26.65Q124.54-25.15 125.59-24.08 126.64-23 128.19-22.25 129.74-21.5 132.39-20.55L132.39-20.55Q135.94-19.25 138.19-18.07 140.44-16.9 142.02-14.83 143.59-12.75 143.59-9.65L143.59-9.65Q143.59-5.05 140.67-2.25 137.74 0.55 131.64 0.55L131.64 0.55Q127.94 0.55 125.32-0.83 122.69-2.2 121.32-4.38 119.94-6.55 119.84-8.9L119.84-8.9 123.59-9.15ZM153.54 0L153.54-31.6 145.44-31.6 145.44-35 165.54-35 165.54-31.6 157.14-31.6 157.14 0 153.54 0ZM169.44 0L169.44-35 186.14-35 186.14-31.55 173.04-31.55 173.04-20.65 181.79-20.65 180.64-17.15 173.04-17.15 173.04-3.25 186.04-3.25 186.04 0 169.44 0ZM206.88-2Q208.33-2.45 209.23-3.68 210.13-4.9 210.13-7.8L210.13-7.8 210.13-13.6Q208.93-12.6 206.96-12.05 204.98-11.5 203.03-11.5L203.03-11.5Q197.78-11.5 194.68-14.23 191.58-16.95 191.58-22.05L191.58-22.05 191.58-35 195.23-35 195.23-21.85Q195.23-18.5 197.33-16.78 199.43-15.05 203.03-15.05L203.03-15.05Q205.78-15.05 207.71-16.13 209.63-17.2 210.13-19.15L210.13-19.15 210.13-35 213.78-35 213.78-7.8Q213.78-0.2 207.88 0.55L207.88 0.55 206.88-2ZM252.28 0L252.28-17.15 237.98-17.15 237.98 0 234.38 0 234.38-35 237.98-35 237.98-20.65 252.28-20.65 252.28-35 255.88-35 255.88 0 252.28 0ZM266.38 0L266.38-31.6 263.08-31.7 263.08-35 269.98-35 269.98 0 266.38 0ZM300.92 0L300.92-24.25 292.77 0 289.37 0 281.32-24.25 281.32 0 277.72 0 277.72-35 281.32-35 291.07-6.55 300.92-35 304.52-35 304.52 0 300.92 0ZM330.32 0L326.87-11.3 316.47-11.3 313.17 0 309.27 0 319.57-35 323.72-35 334.37 0 330.32 0ZM321.62-29.2L317.42-15 325.97-15 321.62-29.2ZM338.77 0L338.77-35 342.37-35 342.37-3.25 356.82-3.25 356.82 0 338.77 0ZM378.67 0L375.22-11.3 364.82-11.3 361.52 0 357.62 0 367.92-35 372.07-35 382.72 0 378.67 0ZM369.97-29.2L365.77-15 374.32-15 369.97-29.2ZM395.96-2Q397.41-2.45 398.31-3.68 399.21-4.9 399.21-7.8L399.21-7.8 399.21-13.6Q398.01-12.6 396.04-12.05 394.06-11.5 392.11-11.5L392.11-11.5Q386.86-11.5 383.76-14.23 380.66-16.95 380.66-22.05L380.66-22.05 380.66-35 384.31-35 384.31-21.85Q384.31-18.5 386.41-16.78 388.51-15.05 392.11-15.05L392.11-15.05Q394.86-15.05 396.79-16.13 398.71-17.2 399.21-19.15L399.21-19.15 399.21-35 402.86-35 402.86-7.8Q402.86-0.2 396.96 0.55L396.96 0.55 395.96-2ZM425.46 0L422.01-11.3 411.61-11.3 408.31 0 404.41 0 414.71-35 418.86-35 429.51 0 425.46 0ZM416.76-29.2L412.56-15 421.11-15 416.76-29.2Z" opacity="1" transform="matrix(1,0,0,1,0,0)" fill="#ba3b0a" class="undefined-text-0" data-fill-palette-color="primary" id="text-0"></path></svg></g></svg></g></svg></g></svg></g><g transform="matrix(1,0,0,1,133.75249098245223,0)"><svg viewBox="0 0 128.01501803509552 46.29447074356866" height="46.29447074356866" width="128.01501803509552"><g><svg xmlns="http://www.w3.org/2000/svg" xmlns:xlink="http://www.w3.org/1999/xlink" version="1.1" x="8.000000000000007" y="0" viewBox="4.418000221252441 31.16200065612793 91.16400146484375 37.67699432373047" enable-background="new 0 0 100 100" xml:space="preserve" height="46.29447074356866" width="112.01501803509551" class="icon-icon-0" data-fill-palette-color="accent" id="icon-0"><path d="M95.582 56.668L78.018 35.04 65.6 50.332l-15.568-19.17-15.6 19.21L21.982 35.04 4.418 56.668l1.164 0.945 9.523-11.726 3.473 4.276 3.436-4.232 3.438 4.231 3.44-4.236 4.575 5.634L20.203 67.894l1.164 0.945 16.867-20.77 5.956 7.335 5.896-7.261 5.896 7.261 5.902-7.268 16.813 20.703 1.164-0.945L66.566 51.521l4.575-5.634 3.473 4.276 3.436-4.232 3.438 4.231 3.44-4.236 9.491 11.687L95.582 56.668zM25.451 47.784l-3.438-4.232-3.436 4.232-2.507-3.085 5.911-7.278 5.943 7.318L25.451 47.784zM55.982 53.024l-5.896-7.261-5.896 7.261L39.2 46.88l10.832-13.339 10.886 13.406L55.982 53.024zM81.486 47.784l-3.438-4.232-3.436 4.232-2.507-3.085 5.911-7.279 5.943 7.318L81.486 47.784z" fill="#e8772e" data-fill-palette-color="accent"></path></svg></g></svg></g><g><rect width="133.75249098245223" height="3.020899527893509" y="42.27357121567515" x="261.76750901754775" fill="#e8772e" data-fill-palette-color="accent"></rect><rect width="133.75249098245223" height="3.020899527893509" y="42.27357121567515" x="0" fill="#e8772e" data-fill-palette-color="accent"></rect><rect width="133.75249098245223" height="3.020899527893509" y="36.23177215988813" x="261.76750901754775" fill="#e8772e" data-fill-palette-color="accent"></rect><rect width="133.75249098245223" height="3.020899527893509" y="36.23177215988813" x="0" fill="#e8772e" data-fill-palette-color="accent"></rect></g></svg></g><defs></defs></svg><rect width="395.52" height="87.7007545487983" fill="none" stroke="none" visibility="hidden"></rect></g></svg></g></svg>